<?xml version="1.0" standalone="no"?><!DOCTYPE svg PUBLIC "-//W3C//DTD SVG 1.1//EN" "http://www.w3.org/Graphics/SVG/1.1/DTD/svg11.dtd"><svg class="icon" height="512" viewBox="0 0 1024 1024" version="1.1" xmlns="http://www.w3.org/2000/svg"><path d="M726.368865 380.540541c53.497081 0 96.864865-43.367784 96.864865-96.864865 0-53.497081-43.367784-96.864865-96.864865-96.864865s-96.864865 43.367784-96.864865 96.864865C629.504 337.172757 672.871784 380.540541 726.368865 380.540541zM726.368865 207.567568c42.150054 0 76.322595 34.075676 76.322595 76.108108s-34.172541 76.108108-76.322595 76.108108-76.322595-34.075676-76.322595-76.108108S684.218811 207.567568 726.368865 207.567568zM297.513514 380.540541c53.497081 0 96.864865-43.367784 96.864865-96.864865 0-53.497081-43.367784-96.864865-96.864865-96.864865s-96.864865 43.367784-96.864865 96.864865C200.648649 337.172757 244.016432 380.540541 297.513514 380.540541zM297.513514 207.567568c42.150054 0 76.322595 34.075676 76.322595 76.108108S339.663568 359.783784 297.513514 359.783784s-76.322595-34.075676-76.322595-76.108108S255.363459 207.567568 297.513514 207.567568zM477.405405 262.918919c0 0-19.027027 2.304-34.594595 41.513514 0 0-25.945946 72.219676-96.864865 96.864865 0 0-20.756757 5.618162-55.351351 6.918919 0 0-151.787243-9.513514-200.648649 89.945946 0 0-41.084541 60.111568-55.351351 166.054054 0 0-3.459459 38.918919 27.675676 41.513514 0 0 28.540541 4.760216 41.513514-34.594595 0 0 30.27027-115.891892 48.432432-124.540541 0 0 12.537081-6.489946 6.918919 27.675676 0 0-11.243243 115.891892-34.594595 166.054054 0 0 12.537081 44.972973 138.378378 62.27027 0 0 101.189189 6.918919 124.540541-34.594595 0 0 3.459459-11.679135 0-27.675676 0 0-28.831135-181.621622 34.594595-256 0 0 93.979676-92.831135 83.027027-193.72973C505.081081 290.594595 504.216216 254.699243 477.405405 262.918919zM484.324324 345.945946c0 0-9.222919 56.506811-62.27027 110.702703 0 0-39.209514 33.439135-55.351351 110.702703 0 0-9.513514 93.405405-2.594595 179.027027 0 0 1.72973 17.297297-11.243243 21.621622 0 0-38.918919 24.216216-110.702703 13.837838 0 0-82.598054-19.456-89.945946-48.432432 0 0-1.093189-8.627892 6.918919-48.432432 0 0 33.293838-163.459459 0-166.054054 0 0-27.246703 4.760216-48.432432 76.108108 0 0-20.971243 106.592865-48.432432 91.246703 0 0-3.459459-0.650378-6.918919-8.219676 0 0-9.222919-18.736432 10.668973-76.682378 0 0 28.685838-116.611459 113.871568-158.560865 0 0 25.081081-12.972973 76.108108-13.837838 0 0 117.836108 3.459459 159.135135-48.432432 0 0 41.513514-48.861405 48.432432-76.108108 0 0 10.952649-29.405405 20.756757-13.837838C484.324324 290.594595 492.972973 295.783784 484.324324 345.945946zM989.287784 664.216216c-14.266811-105.942486-55.351351-166.054054-55.351351-166.054054-48.861405-99.459459-200.648649-89.945946-200.648649-89.945946-34.594595-1.300757-55.351351-6.918919-55.351351-6.918919-70.918919-24.645189-96.864865-96.864865-96.864865-96.864865-15.567568-39.209514-34.594595-41.513514-34.594595-41.513514-26.810811-8.219676-27.675676 27.675676-27.675676 27.675676-10.952649 100.898595 83.027027 193.72973 83.027027 193.72973 63.42573 74.378378 34.594595 256 34.594595 256-3.459459 15.996541 0 27.675676 0 27.675676 23.351351 41.513514 124.540541 34.594595 124.540541 34.594595 125.841297-17.297297 138.378378-62.27027 138.378378-62.27027-23.351351-50.162162-34.594595-166.054054-34.594595-166.054054-5.618162-34.165622 6.918919-27.675676 6.918919-27.675676 18.162162 8.648649 48.432432 124.540541 48.432432 124.540541 12.972973 39.354811 41.513514 34.594595 41.513514 34.594595C992.747243 703.135135 989.287784 664.216216 989.287784 664.216216zM968.531027 678.054054c-3.459459 7.569297-6.918919 8.219676-6.918919 8.219676-27.461189 15.353081-48.432432-91.246703-48.432432-91.246703-21.18573-71.347892-48.432432-76.108108-48.432432-76.108108-33.293838 2.594595 0 166.054054 0 166.054054 8.012108 39.804541 6.918919 48.432432 6.918919 48.432432-7.347892 28.976432-89.945946 48.432432-89.945946 48.432432-71.783784 10.378378-110.702703-13.837838-110.702703-13.837838-12.972973-4.324324-11.243243-21.621622-11.243243-21.621622C666.693189 660.756757 657.179676 567.351351 657.179676 567.351351c-16.141838-77.263568-55.351351-110.702703-55.351351-110.702703-53.047351-54.195892-62.27027-110.702703-62.27027-110.702703-8.648649-50.162162 0-55.351351 0-55.351351 9.804108-15.567568 20.756757 13.837838 20.756757 13.837838 6.918919 27.246703 48.432432 76.108108 48.432432 76.108108 41.299027 51.891892 159.135135 48.432432 159.135135 48.432432 51.027027 0.864865 76.108108 13.837838 76.108108 13.837838 85.18573 41.942486 113.871568 158.560865 113.871568 158.560865C977.760865 659.317622 968.531027 678.054054 968.531027 678.054054z" /></svg>